<?xml version="1.0" standalone="no"?>
<!DOCTYPE svg PUBLIC "-//W3C//DTD SVG 20010904//EN"
 "http://www.w3.org/TR/2001/REC-SVG-20010904/DTD/svg10.dtd">
<svg version="1.0" xmlns="http://www.w3.org/2000/svg"
 width="256.000000pt" height="256.000000pt" viewBox="0 0 256.000000 256.000000"
 preserveAspectRatio="xMidYMid meet">

<g transform="translate(0.000000,256.000000) scale(0.100000,-0.100000)"
fill="white" stroke="none">
<path d="M1215 2366 c-594 -106 -1093 -196 -1109 -200 -42 -10 -93 -66 -101
-109 -5 -23 1 -78 16 -154 23 -116 24 -130 29 -960 5 -830 5 -842 26 -869 11
-15 33 -37 48 -48 27 -21 32 -21 1181 -21 1149 0 1154 0 1181 21 15 11 37 33
48 48 21 27 21 37 24 803 l2 775 -22 40 c-44 78 21 72 -956 78 l-872 5 842
149 c464 82 855 155 870 162 40 21 67 53 78 95 13 45 -21 256 -49 304 -19 34
-93 76 -131 74 -14 -1 -511 -88 -1105 -193z m1138 82 c11 -9 23 -50 37 -127
20 -110 20 -115 3 -132 -17 -16 -212 -59 -269 -59 -19 0 -30 19 -74 130 -29
72 -50 134 -46 137 5 5 279 59 317 62 8 0 23 -5 32 -11z m-404 -204 c29 -74
52 -136 50 -138 -6 -4 -312 -56 -331 -56 -12 0 -31 36 -68 131 -28 72 -48 134
-46 137 6 5 287 59 321 61 17 1 29 -22 74 -135z m-449 -80 c28 -74 50 -137 49
-138 -2 -1 -78 -15 -168 -31 -136 -23 -165 -25 -172 -14 -14 23 -102 259 -98
262 5 5 288 54 315 56 18 1 29 -18 74 -135z m-442 -76 c28 -73 49 -134 46
-137 -4 -5 -297 -60 -321 -61 -9 0 -113 246 -113 269 0 8 253 58 306 60 30 1
31 0 82 -131z m-438 -82 c28 -71 49 -130 47 -133 -6 -6 -518 -96 -522 -91 -2
2 -14 61 -26 131 -20 114 -21 129 -8 143 17 16 439 96 451 85 3 -3 29 -64 58
-135z m8 -418 c-16 -46 -40 -110 -52 -143 l-21 -60 -203 -3 -202 -2 0 145 0
145 254 0 255 0 -31 -82z m465 -15 c-19 -54 -43 -119 -51 -145 l-16 -48 -184
0 c-101 0 -182 4 -180 8 2 5 25 70 52 145 l50 137 183 0 182 0 -36 -97z m505
89 c-1 -5 -25 -70 -52 -145 l-50 -137 -183 0 -182 0 40 113 c23 61 46 127 52
145 l10 32 185 0 c101 0 182 -4 180 -8z m470 -4 c-3 -7 -26 -73 -53 -145 l-48
-133 -183 0 -184 0 11 28 c6 15 29 76 50 136 22 59 42 112 45 117 3 5 86 9
186 9 140 0 179 -3 176 -12z m374 -5 c16 -14 18 -33 18 -145 l0 -128 -190 0
c-109 0 -190 4 -190 9 0 8 43 130 91 259 8 21 13 22 130 22 100 0 126 -3 141
-17z m18 -945 c0 -518 -2 -573 -17 -590 -15 -17 -64 -18 -1135 -18 -1105 0
-1118 0 -1138 20 -20 20 -20 33 -20 590 l0 570 1155 0 1155 0 0 -572z"/>
<path d="M260 1981 c-16 -31 -12 -49 15 -67 23 -15 27 -15 50 0 43 28 26 86
-25 86 -19 0 -33 -7 -40 -19z"/>
<path d="M302 1558 c-19 -19 -14 -55 10 -72 12 -9 26 -16 30 -16 13 0 48 39
48 54 0 37 -61 61 -88 34z"/>
<path d="M1026 1004 c-14 -13 -16 -56 -16 -310 0 -185 4 -303 10 -315 6 -11
21 -19 36 -19 33 0 532 288 540 312 11 35 -7 54 -103 110 -54 31 -169 97 -256
147 -87 50 -166 91 -177 91 -10 0 -26 -7 -34 -16z m254 -216 c88 -50 160 -95
160 -98 0 -7 -312 -190 -324 -190 -3 0 -6 86 -6 190 0 105 2 190 5 190 3 0 78
-41 165 -92z"/>
</g>
</svg>
