<?xml version="1.0" standalone="no"?>
<!DOCTYPE svg PUBLIC "-//W3C//DTD SVG 20010904//EN"
 "http://www.w3.org/TR/2001/REC-SVG-20010904/DTD/svg10.dtd">
<svg version="1.0" xmlns="http://www.w3.org/2000/svg"
 width="419.000000pt" height="463.000000pt" viewBox="0 0 419.000000 463.000000"
 preserveAspectRatio="xMidYMid meet">

<g transform="translate(0.000000,463.000000) scale(0.100000,-0.100000)"
fill="#ffffff" stroke="none">
<path d="M2581 4170 c-18 -4 -45 -17 -59 -27 -26 -19 -1628 -2630 -1637 -2668
-6 -23 -29 -384 -46 -708 -12 -237 -10 -254 38 -276 51 -23 57 -20 493 239 80
48 192 114 251 148 58 34 114 72 126 84 37 42 1607 2623 1616 2658 12 44 -6
114 -36 144 -32 31 -632 396 -670 407 -17 5 -34 9 -37 8 -3 -1 -20 -5 -39 -9z
m314 -345 c143 -87 266 -163 272 -169 17 -16 -165 -318 -187 -310 -26 9 -540
326 -540 332 0 12 184 311 190 308 3 -2 122 -74 265 -161z m-265 -479 c140
-86 256 -161 258 -165 3 -10 -1252 -2068 -1276 -2093 -17 -17 -406 -248 -417
-248 -20 0 -165 97 -165 110 0 8 7 119 15 245 l14 230 616 1010 c339 556 628
1027 641 1048 20 30 28 36 42 28 9 -5 132 -80 272 -165z"/>
</g>
</svg>
