<?xml version="1.0" standalone="no"?>
<!DOCTYPE svg PUBLIC "-//W3C//DTD SVG 20010904//EN"
 "http://www.w3.org/TR/2001/REC-SVG-20010904/DTD/svg10.dtd">
<svg version="1.0" xmlns="http://www.w3.org/2000/svg"
 width="256.000000pt" height="256.000000pt" viewBox="0 0 256.000000 256.000000"
 preserveAspectRatio="xMidYMid meet">

<g transform="translate(0.000000,256.000000) scale(0.100000,-0.100000)"
fill="white" stroke="none">
<path d="M125 2283 c-47 -24 -86 -64 -106 -108 -18 -38 -19 -84 -19 -893 0
-932 -2 -892 58 -955 15 -16 44 -37 64 -48 36 -18 75 -19 1158 -19 1083 0
1122 1 1158 19 20 11 49 32 64 48 60 63 58 23 58 953 0 930 2 890 -58 953 -15
16 -44 37 -64 48 -36 18 -74 19 -1160 19 -1003 -1 -1126 -2 -1153 -17z m2253
-165 c17 -17 17 -1659 0 -1676 -17 -17 -2179 -17 -2196 0 -17 17 -17 1659 0
1676 17 17 2179 17 2196 0z"/>
<path d="M509 1946 c-107 -38 -179 -158 -164 -270 7 -59 27 -100 69 -144 156
-167 436 -56 436 172 0 145 -109 256 -250 255 -30 0 -71 -6 -91 -13z"/>
<path d="M1323 1408 l-343 -343 -108 108 -107 107 -213 -213 -212 -212 0 -128
0 -127 940 0 940 0 0 298 0 297 -278 278 -277 277 -342 -342z"/>
</g>
</svg>
