<?xml version="1.0" standalone="no"?>
<!DOCTYPE svg PUBLIC "-//W3C//DTD SVG 20010904//EN"
 "http://www.w3.org/TR/2001/REC-SVG-20010904/DTD/svg10.dtd">
<svg version="1.0" xmlns="http://www.w3.org/2000/svg"
 width="256.000000pt" height="256.000000pt" viewBox="0 0 256.000000 256.000000"
 preserveAspectRatio="xMidYMid meet">

<g transform="translate(0.000000,256.000000) scale(0.100000,-0.100000)"
fill="white" stroke="none">
<path d="M1830 2544 c-36 -7 -99 -30 -140 -50 -69 -34 -99 -61 -373 -333
l-297 -296 117 -1 c86 -1 137 -7 188 -22 l70 -21 200 198 c226 223 245 236
370 236 166 0 289 -123 290 -290 0 -131 -2 -134 -334 -468 -319 -321 -347
-343 -453 -354 -70 -7 -150 16 -207 59 -123 94 -187 90 -291 -16 l-44 -46 18
-35 c25 -46 128 -144 189 -179 174 -102 393 -109 577 -20 69 34 99 61 401 361
346 345 380 386 420 513 67 215 11 440 -150 601 -149 149 -347 207 -551 163z"/>
<path d="M990 1704 c-36 -7 -99 -30 -140 -50 -69 -34 -100 -61 -401 -361 -346
-345 -380 -386 -420 -513 -105 -337 105 -693 451 -766 92 -20 208 -14 300 15
124 39 170 76 476 382 l289 289 -60 -6 c-68 -7 -196 9 -268 32 l-49 16 -201
-199 c-228 -226 -247 -238 -372 -238 -168 0 -289 123 -290 295 0 127 10 141
352 481 277 275 302 298 358 319 47 17 74 21 125 17 67 -4 152 -39 180 -72 21
-25 86 -55 120 -55 43 0 97 31 150 84 l44 46 -19 37 c-35 65 -133 151 -219
194 -134 65 -268 83 -406 53z"/>
</g>
</svg>
