<svg xmlns="http://www.w3.org/2000/svg" xmlns:xlink="http://www.w3.org/1999/xlink" version="1.1" id="Layer_1" x="0px" y="0px" style="enable-background:new 0 0 500 400;" xml:space="preserve" viewBox="140.18 57.56 219.62 285.02">
<style type="text/css">
	.st0{fill:#FFFFFF;}
	.st1{fill:#218CDB;}
	.st2{fill:#167ACF;}
</style>
<g>
	<path class="st0" d="M359.8,322.2c0,11.5-6.9,19.5-17.3,20c-1.7,0.1-3.4,0.1-5.1,0.1c-0.1,0-0.1,0-0.1,0.1c-0.1,0-0.1,0-0.1,0   c-0.2,0.1-0.4,0.1-0.7,0c-0.1,0-0.2,0-0.3,0c-2.1,0-4.1,0-6.1-0.1H160.9c-13.5-0.1-20.7-7.1-20.7-20.5c0-66.3-0.1-132.6,0.2-198.9   c0-2.8,1.3-6.3,3.2-8.3c17.7-18.1,35.7-36,53.8-53.8c1.7-1.7,4.7-2.9,7.2-3c9.7-0.2,19.4-0.2,29.2-0.2h0.3c0.9-0.1,1.9,0,2.8,0   c0.3,0,0.6,0,0.8,0h100.4c15,0,21.7,6.7,21.7,21.7v167.8C359.8,272.2,359.8,297.2,359.8,322.2z"/>
	<path d="M359.8,247.2V79.4c0-15-6.8-21.7-21.7-21.7H237.7c-0.3,0-0.6,0-0.8,0c-1,0-1.9-0.1-2.8,0h-0.3c-9.7,0-19.4,0-29.2,0.2   c-2.4,0.1-5.4,1.2-7.2,3c-18.1,17.8-36.1,35.7-53.8,53.8c-1.9,2-3.2,5.4-3.2,8.3c-0.2,66.3-0.2,132.5-0.2,198.9   c0,13.4,7.2,20.5,20.7,20.5H330c2.1,0.1,4.1,0.1,6.1,0.1c0.1,0,0.2,0,0.3,0c0.3,0.1,0.5,0.1,0.7,0c0,0,0,0,0.1,0   c0.1,0,0.1,0,0.1-0.1c1.7-0.1,3.4-0.1,5.1-0.1c10.4-0.5,17.3-8.4,17.3-20C359.8,297.2,359.8,272.2,359.8,247.2z M197.8,74.7   c0,9.4,0.1,19.9-0.1,30.5c-0.1,5.7-3.5,9.8-9,10c-10.8,0.3-21.7,0.1-31.5,0.1L197.8,74.7z M351.2,320.4c0,10.7-2.8,13.4-13.5,13.4   c-0.3,0-0.5,0-0.8,0c-0.9-0.2-2-0.1-3.1-0.1c-2.2-0.1-4.4-0.1-6.6,0.1H214c-5.2,0.7-10.3,0.7-15.1,0h-35.3   c-12.4,0-14.7-2.3-14.7-14.4V123.5h35c16.2-0.1,22.4-6.3,22.5-22.6c0-10.7,0-21.5,0.1-32.2c0-0.5,0.2-1.1,0.4-2.4   c1.8-0.1,3.8-0.3,5.7-0.3c7.3,0,14.5,0,21.7,0c0.1,0,0.2,0,0.3,0c1.2,0.1,2.6,0,3.9,0c21.3,0,78.6,0,99.9,0   c10.4,0,13.2,2.8,13.2,13.2C351.2,159.7,351.2,240,351.2,320.4z"/>
	<path d="M224.8,146.4h-46.7c-2.4,0-4.4-2-4.4-4.4s2-4.4,4.4-4.4h40.7C221.1,140.1,223.2,143,224.8,146.4z"/>
	<path d="M284.2,137.6c-6.6,2.4-12.2,5.4-17,8.8h-39.3c-1.5-3.5-3.3-6.3-5.3-8.8H284.2z"/>
	<path d="M324.7,145.4c-0.8,0.6-1.7,1-2.7,1h-49.6c4.2-2.6,8.9-4.7,14.1-6.6c6.5-2.3,13.9-2.6,21.1-1.2c0.2,0,0.2,0.1,0.5,0.1   C313.8,139.9,319.5,142.1,324.7,145.4z"/>
	<path d="M326.4,142c0,0.4,0,0.7-0.1,1c-3.5-2.2-7.3-4.1-11.2-5.4h7C324.4,137.6,326.4,139.6,326.4,142z"/>
	<path d="M330.2,99.4c0,2.4-1.4,4.4-3.1,4.4H224.1c-1.7,0-3.1-2-3.1-4.4c0-2.4,1.4-4.4,3.1-4.4H327C328.8,95,330.2,96.9,330.2,99.4z   "/>
	<path d="M230.6,195.9h-48.7c-2.4,0-4.4-2-4.4-4.4c0-2.4,2-4.4,4.4-4.4H230C230.1,190.1,230.2,192.9,230.6,195.9z"/>
	<path d="M248,195.9h-14.5c-0.4-3-0.6-5.9-0.7-8.8h14.7C247.5,189.9,247.7,192.8,248,195.9z"/>
	<path d="M330.2,191.5c0,2.4-2,4.4-4.4,4.4h-74.9c-0.3-3.1-0.5-6-0.5-8.8h75.4C328.2,187.1,330.2,189.1,330.2,191.5z"/>
	<path d="M260.3,255.5h-78.4c-2.4,0-4.4-2-4.4-4.4c0-2.4,2-4.4,4.4-4.4h66C252,249.3,256.2,252.2,260.3,255.5z"/>
	<path d="M277,255.5h-12.2c-3.8-3.1-7.7-6.1-11.7-8.8h17C272.3,249.7,274.7,252.6,277,255.5z"/>
	<path d="M327.7,247.1c-0.9,2.6-1.8,5.4-2.5,8.3h-44.3c-2.4-2.9-4.8-5.8-7-8.8h52.1C326.5,246.7,327.1,246.9,327.7,247.1z"/>
	<path d="M330.2,251.1c0,1.5-0.8,2.8-1.9,3.6c0.5-1.8,1-3.6,1.6-5.3C330.1,250,330.2,250.5,330.2,251.1z"/>
	<path d="M321.8,296.5C321.8,296.5,321.8,296.5,321.8,296.5C321.8,296.5,321.8,296.5,321.8,296.5L321.8,296.5z"/>
	<path d="M300.9,296.5c2.7,3.3,5.1,6.2,7.1,8.8h-126c-2.4,0-4.4-2-4.4-4.4c0-2.4,2-4.4,4.4-4.4H300.9z"/>
	<path d="M330.2,300.9c0,2.4-2,4.4-4.4,4.4h-14.3c-1.9-2.5-4.2-5.4-7-8.8h12.8c1.4,1.2,2.3,2,2.6,2.2c0.9,0.7,2,0.8,3,0.3   c0.1-0.1,0.2-0.2,0.3-0.2c0,0,0,0,0.1,0c0.2-0.1,0.4-0.2,0.5-0.4c0.2-0.3,0.4-0.6,0.5-1c0.1-0.3,0.2-0.6,0.2-0.9h1.2   C328.2,296.5,330.2,298.5,330.2,300.9z"/>
	<path class="st1" d="M285.7,172.1c0.1,0.1,0.3,0.2,0.4,0.3C285.8,172.2,285.7,172.1,285.7,172.1   C285.7,172.1,285.7,172.1,285.7,172.1z"/>
	<g>
		<path class="st0" d="M345.1,200.5c-6.4,23.4-13,33.9-17.5,46.6c-0.9,2.6-1.8,5.4-2.5,8.3c-2.4,9.7-3.8,21.7-3.3,40.9    c0,0,0,0.1,0,0.1c0,0,0,0,0,0s0,0-0.1,0c-1.1-0.9-22.2-18.7-41-41c-2.4-2.9-4.8-5.8-7-8.8c-9.9-13-18.2-26.8-20.9-39.4    c-0.9-4-1.5-7.8-1.9-11.4c-0.3-3.1-0.5-6-0.5-8.8c0-19.6,8.1-32.3,22-40.7c4.2-2.6,8.9-4.7,14.1-6.6c6.5-2.3,13.9-2.6,21.1-1.2    c0.2,0,0.2,0.1,0.5,0.1c5.8,1.2,11.5,3.5,16.7,6.8C340.8,155.6,352.1,175.1,345.1,200.5z"/>
		<path class="st0" d="M314.9,314.5c-25.9-2.6-39.1-0.9-50.9,2.4c0,0,0,0-0.1,0.1c-0.3,0.1-0.6,0.2-0.9,0.2    c-0.6,0.2-1.5,0.4-2.7,0.8c-11.2,3.6-22.1,8.4-43,12.5c-40.8,7.9-63.5-28.7-58.4-55.5v-0.1c0.5-2.6,1.3-5.2,2.4-7.6    c12-26.7,31.9-39.8,69.9-28.4c5.5,1.6,11.1,4.4,16.8,7.9c4.1,2.5,8.3,5.5,12.4,8.8c15.7,12.4,30.4,28.7,40.6,41    c2.7,3.3,5.1,6.2,7.1,8.8C312.3,310.9,314.9,314.5,314.9,314.5z"/>
		<path class="st0" d="M240.9,226.6c0,0-54.1-15.2-71-37.9c-16.8-22.8-12.8-39.3,2.2-53.7c2.4-2.3,5.4-4.1,8.7-5.5h0.1    c11.8-4.6,27.7-2.4,37.8,8.2c2.3,2.4,4.4,5.4,6,8.8c1.5,3.2,2.6,6.8,3.3,10.9c0.6,3.9,1,7.4,1.2,10.5c0,0.1,0.1,0.2,0.1,0.2    c0.7,7.9,0.5,13.7,0.7,19.2c0.1,2.9,0.2,5.8,0.6,8.8C231.6,203.6,234.1,212.4,240.9,226.6z"/>
	</g>
	<path class="st2" d="M345.1,200.5c-6.4,23.4-13,33.9-17.5,46.6c-0.9,2.6-1.8,5.4-2.5,8.3c-2.4,9.7-3.8,21.7-3.3,40.9   c0,0,0,0.1,0,0.1c0,0,0,0,0,0s0,0-0.1,0c-1.1-0.9-22.2-18.7-41-41c-2.4-2.9-4.8-5.8-7-8.8c-9.9-13-18.2-26.8-20.9-39.4   c-0.9-4-1.5-7.8-1.9-11.4c-0.3-3.1-0.5-6-0.5-8.8c0-19.6,8.1-32.3,22-40.7c4.2-2.6,8.9-4.7,14.1-6.6c6.5-2.3,13.9-2.6,21.1-1.2   c0.2,0,0.2,0.1,0.5,0.1c5.8,1.2,11.5,3.5,16.7,6.8C340.8,155.6,352.1,175.1,345.1,200.5z"/>
	<path class="st2" d="M314.9,314.5c-25.9-2.6-39.1-0.9-50.9,2.4c0,0,0,0-0.1,0.1c-0.3,0.1-0.6,0.2-0.9,0.2c-0.6,0.2-1.5,0.4-2.7,0.8   c-11.2,3.6-22.1,8.4-43,12.5c-40.8,7.9-63.5-28.7-58.4-55.5v-0.1c0.5-2.6,1.3-5.2,2.4-7.6c12-26.7,31.9-39.8,69.9-28.4   c5.5,1.6,11.1,4.4,16.8,7.9c4.1,2.5,8.3,5.5,12.4,8.8c15.7,12.4,30.4,28.7,40.6,41c2.7,3.3,5.1,6.2,7.1,8.8   C312.3,310.9,314.9,314.5,314.9,314.5z"/>
	<path class="st2" d="M240.9,226.6c0,0-54.1-15.2-71-37.9c-16.8-22.8-12.8-39.3,2.2-53.7c2.4-2.3,5.4-4.1,8.7-5.5h0.1   c11.8-4.6,27.7-2.4,37.8,8.2c2.3,2.4,4.4,5.4,6,8.8c1.5,3.2,2.6,6.8,3.3,10.9c0.6,3.9,1,7.4,1.2,10.5c0,0.1,0.1,0.2,0.1,0.2   c0.7,7.9,0.5,13.7,0.7,19.2c0.1,2.9,0.2,5.8,0.6,8.8C231.6,203.6,234.1,212.4,240.9,226.6z"/>
</g>
</svg>