<svg version="1.1" id="Layer_1" xmlns="http://www.w3.org/2000/svg" xmlns:xlink="http://www.w3.org/1999/xlink" x="0px" y="0px"
     width="100%" viewBox="0 0 819 614" enable-background="new 0 0 819 614" xml:space="preserve">
    <path fill="none" opacity="1.000000" stroke="#ffffff" stroke-linecap="round" stroke-linejoin="round" stroke-width="17.000000"
        d="
    M230.000000,190.500000 
        C223.712845,193.097809 222.000366,198.311035 222.000336,204.500000 
        C221.999863,310.000000 222.026215,415.500000 221.966812,521.000000 
        C221.959396,534.183533 232.794052,545.036438 246.000015,545.029846 
        C352.500000,544.976562 459.000031,545.044128 565.499939,544.936096 
        C576.957642,544.924500 585.665466,539.355530 591.463013,529.478271 
        C593.051392,526.772095 593.984131,523.691040 593.460388,520.506531 
        C592.693176,515.841492 593.020935,511.166962 593.020081,506.500000 
        C592.995239,370.166656 593.001343,233.833328 592.997803,97.500000 
        C592.997498,85.017296 586.934692,75.636726 576.473511,72.590904 
        C573.311218,71.670197 569.833557,71.545280 566.499939,71.542496 
        C498.666656,71.485847 430.833344,71.495735 363.000000,71.520988 
        C360.999939,71.521736 358.895508,71.495415 357.023041,72.074493 
        C353.725281,73.094368 350.860168,74.499138 346.946442,73.799576 
        C343.980011,73.269325 340.903259,76.040085 338.484039,78.484200 
        C330.359375,86.692444 322.246918,94.915504 313.984985,102.984612 
        C289.026550,127.360527 264.020691,151.688019 238.979385,175.978760 
        C234.855072,179.979446 230.990265,184.041367 230.000000,190.000000 
    "/>
    <path fill="none" opacity="1.000000" stroke="#ffffff" stroke-linecap="round" stroke-linejoin="round" stroke-width="17.000000"
        d="
    M351.000000,75.000000 
        C352.895081,80.179779 353.051666,85.547462 353.038055,91.000092 
        C352.959839,122.333237 352.990204,153.666672 353.006012,185.000000 
        C353.010742,194.351730 350.982910,195.310028 342.510895,194.813858 
        C339.111328,194.614746 335.834625,195.069351 332.499786,195.057663 
        C303.833496,194.957275 275.166199,194.916641 246.500366,195.069687 
        C240.702927,195.100647 235.407715,194.035797 230.500000,191.000000 
    "/>
    <path fill="none" opacity="1.000000" stroke="#ffffff" stroke-linecap="round" stroke-linejoin="round" stroke-width="17.000000"
        d="
    M504.000000,450.000000 
        C438.666656,450.000000 373.333344,449.997498 308.000000,450.010834 
    "/>
    <path fill="none" opacity="1.000000" stroke="#ffffff" stroke-linecap="round" stroke-linejoin="round" stroke-width="16.000000"
        d="
    M504.500000,334.500000 
        C437.166656,334.500000 369.833344,334.500000 302.500000,334.500000 
    "/>
    <path fill="none" opacity="1.000000" stroke="#ffffff" stroke-linecap="round" stroke-linejoin="round" stroke-width="17.000000"
        d="
    M504.500000,392.500000 
        C502.333344,392.333344 500.166718,392.021881 498.000000,392.020996 
        C433.000000,391.995148 368.000000,392.000000 303.000000,392.000000 
    "/>
    <path fill="none" opacity="1.000000" stroke="#ffffff" stroke-linecap="round" stroke-linejoin="round" stroke-width="17.000000"
        d="
    M504.000000,277.000000 
        C437.000000,277.000000 370.000000,277.000000 303.000000,277.000000 
    "/>
    <path fill="none" opacity="1.000000" stroke="#ffffff" stroke-linecap="round" stroke-linejoin="round" stroke-width="17.000000"
        d="
    M504.000000,211.000000 
        C476.000000,211.000000 448.000000,211.000000 420.000000,211.000000 
    "/>
</svg>
