<?xml version="1.0" standalone="no"?>
<!DOCTYPE svg PUBLIC "-//W3C//DTD SVG 20010904//EN"
 "http://www.w3.org/TR/2001/REC-SVG-20010904/DTD/svg10.dtd">
<svg version="1.0" xmlns="http://www.w3.org/2000/svg"
 width="256.000000pt" height="256.000000pt" viewBox="0 0 256.000000 256.000000"
 preserveAspectRatio="xMidYMid meet">

<g transform="translate(0.000000,256.000000) scale(0.100000,-0.100000)"
fill="white" stroke="none">
<path d="M1426 2464 c-135 -33 -139 -36 -734 -628 -404 -402 -561 -565 -580
-601 -22 -41 -27 -63 -26 -125 0 -63 4 -83 28 -126 37 -69 812 -842 876 -875
67 -34 177 -33 245 3 37 20 194 171 601 580 498 499 554 559 582 618 59 123
62 147 62 560 0 438 -1 442 -84 526 -84 84 -88 84 -530 83 -293 0 -395 -4
-440 -15z m840 -199 l25 -25 -3 -387 -3 -388 -29 -60 c-25 -52 -99 -130 -560
-592 -358 -358 -540 -534 -558 -539 -16 -3 -38 -4 -51 0 -28 7 -798 776 -811
810 -5 13 -6 36 -2 52 5 20 159 181 514 537 279 280 524 522 545 539 21 17 64
41 95 54 56 23 62 24 435 24 l378 0 25 -25z"/>
<path d="M1700 2073 c-69 -25 -145 -107 -166 -178 -63 -218 132 -414 348 -351
65 19 138 79 171 140 29 55 31 193 3 246 -26 49 -84 108 -131 132 -54 28 -164
34 -225 11z m165 -198 c19 -18 25 -35 25 -65 0 -56 -34 -90 -89 -90 -78 0
-120 96 -66 154 33 36 95 37 130 1z"/>
</g>
</svg>
