<?xml version="1.0" standalone="no"?>
<!DOCTYPE svg PUBLIC "-//W3C//DTD SVG 20010904//EN"
 "http://www.w3.org/TR/2001/REC-SVG-20010904/DTD/svg10.dtd">
<svg version="1.0" xmlns="http://www.w3.org/2000/svg"
 width="337.000000pt" height="418.000000pt" viewBox="0 0 337.000000 418.000000"
 preserveAspectRatio="xMidYMid meet">

<g transform="translate(0.000000,418.000000) scale(0.100000,-0.100000)"
fill="#ffffff" stroke="none">
<path d="M1337 4149 c-52 -12 -134 -55 -183 -94 -72 -59 -113 -132 -154 -272
l-38 -128 -408 -5 c-403 -5 -409 -5 -440 -27 -116 -83 -57 -273 84 -273 l30 0
6 -82 c3 -46 28 -708 56 -1473 28 -765 53 -1411 56 -1437 15 -119 111 -244
232 -301 l67 -32 1055 0 1055 0 67 32 c118 56 202 160 227 283 6 31 33 672 61
1450 28 767 53 1432 56 1476 l6 82 43 4 c137 16 183 191 71 271 -31 22 -37 22
-440 27 l-408 5 -38 128 c-55 190 -117 269 -266 339 l-69 33 -345 2 c-190 1
-362 -3 -383 -8z m681 -303 c45 -23 69 -58 90 -128 l20 -68 -428 0 -428 0 20
68 c22 72 37 95 83 123 27 17 55 19 323 19 232 0 299 -3 320 -14z m847 -593
c-6 -102 -105 -2778 -105 -2833 0 -23 -10 -42 -34 -66 l-34 -34 -992 0 -992 0
-34 34 c-24 24 -34 43 -34 66 0 55 -99 2731 -105 2833 l-5 97 1170 0 1170 0
-5 -97z"/>
<path d="M1000 2923 c-28 -11 -69 -56 -75 -82 -6 -30 52 -2062 61 -2102 3 -14
19 -39 35 -55 25 -24 39 -29 79 -29 40 0 54 5 79 29 16 16 33 41 36 55 6 30
-52 2062 -61 2102 -11 57 -100 104 -154 82z"/>
<path d="M1655 2921 c-11 -5 -31 -21 -45 -36 l-25 -27 0 -1069 0 -1069 33 -32
c28 -28 39 -33 82 -33 43 0 54 5 82 33 l33 32 0 1070 0 1070 -31 31 c-33 33
-92 46 -129 30z"/>
<path d="M2320 2923 c-28 -11 -69 -56 -74 -82 -9 -40 -67 -2072 -61 -2102 3
-14 20 -39 36 -55 25 -24 39 -29 79 -29 40 0 54 5 79 29 16 16 32 41 35 55 9
40 67 2072 61 2102 -13 57 -101 104 -155 82z"/>
</g>
</svg>
