<?xml version="1.0" standalone="no"?>
<!DOCTYPE svg PUBLIC "-//W3C//DTD SVG 20010904//EN"
 "http://www.w3.org/TR/2001/REC-SVG-20010904/DTD/svg10.dtd">
<svg version="1.0" xmlns="http://www.w3.org/2000/svg"
 width="52px" height="52px" viewBox="0 0 64.000000 64.000000"
 preserveAspectRatio="xMidYMid meet">

<g transform="translate(0.000000,64.000000) scale(0.100000,-0.100000)"
fill="white" stroke="none">
<path d="M240 555 c-70 -71 -73 -76 -57 -92 16 -16 19 -15 62 27 l45 44 2
-190 3 -189 25 0 25 0 3 189 2 190 45 -44 c43 -42 46 -43 62 -27 16 16 13 21
-57 92 -41 41 -77 75 -80 75 -3 0 -39 -34 -80 -75z"/>
<path d="M0 150 c0 -94 2 -103 25 -125 l24 -25 271 0 271 0 24 25 c23 22 25
31 25 125 0 100 0 100 -25 100 -24 0 -24 -1 -27 -97 l-3 -98 -265 0 -265 0 -3
98 c-3 96 -3 97 -27 97 -25 0 -25 0 -25 -100z"/>
</g>
</svg>
