<?xml version="1.0" standalone="no"?>
<!DOCTYPE svg PUBLIC "-//W3C//DTD SVG 20010904//EN"
 "http://www.w3.org/TR/2001/REC-SVG-20010904/DTD/svg10.dtd">
<svg version="1.0" xmlns="http://www.w3.org/2000/svg"
 width="605.000000pt" height="603.000000pt" viewBox="0 0 605.000000 603.000000"
 preserveAspectRatio="xMidYMid meet">

<g transform="translate(0.000000,603.000000) scale(0.100000,-0.100000)"
fill="#FFFFFF" stroke="none">
<path d="M555 6011 c-220 -64 -400 -228 -487 -445 -32 -78 -33 -86 -33 -226 0
-139 2 -148 31 -221 17 -41 48 -102 69 -135 25 -39 362 -383 984 -1006 l945
-948 -945 -947 c-622 -624 -959 -968 -984 -1007 -21 -33 -52 -94 -69 -135 -29
-72 -31 -83 -31 -216 0 -127 2 -147 27 -213 40 -111 84 -178 178 -272 94 -94
161 -138 272 -178 66 -25 86 -27 213 -27 131 0 144 2 210 29 156 64 157 65
1153 1059 l942 942 938 -936 c515 -515 955 -950 978 -967 60 -46 170 -99 243
-118 91 -23 262 -16 351 15 205 71 390 256 461 461 31 89 38 260 15 351 -19
73 -72 183 -118 243 -17 23 -452 463 -967 978 l-936 938 942 942 c996 998
1000 1003 1061 1155 24 62 26 80 27 208 0 127 -2 147 -27 213 -40 111 -84 178
-178 272 -94 94 -161 138 -272 178 -66 25 -86 27 -213 27 -133 0 -144 -2 -216
-31 -41 -17 -102 -48 -135 -69 -39 -25 -383 -362 -1007 -984 l-947 -946 -938
936 c-515 515 -955 950 -978 967 -58 44 -169 99 -239 117 -80 20 -242 19 -320
-4z"/>
</g>
</svg>
